<svg xmlns="http://www.w3.org/2000/svg" viewBox="0 0 2500 1920"><title>grinn</title><g id="b1cbbf99-b42c-4c9d-994a-5ae5036b7f91" data-name="Layer 2"><path d="M270.27,471.9C121,471.9,0,592.92,0,742.17s121,270.27,270.27,270.27a269,269,0,0,0,135.14-36.25v407.88a135.14,135.14,0,0,1-270.27,0,67.57,67.57,0,1,0-135.14,0c0,149.25,121,270.27,270.27,270.27s270.27-121,270.27-270.27V742.17C540.54,592.92,419.52,471.9,270.27,471.9Zm0,405.41A135.14,135.14,0,1,1,405.41,742.17,135.15,135.15,0,0,1,270.27,877.31Z" fill="#0f1c23"/><path d="M912.16,471.9c-1.2,0-2.33,0-3.45.08C761,473.78,641.89,594.05,641.89,742.17V944.88a67.57,67.57,0,0,0,135.14,0V742.17A135.14,135.14,0,0,1,912.16,607a67.57,67.57,0,1,0,0-135.14Z" fill="#0f1c23"/><path d="M1858,738.72C1856.23,591.05,1736,471.9,1587.84,471.9s-268.4,119.15-270.2,266.82c-.07,1.13-.07,2.25-.07,3.45a67.57,67.57,0,1,0,135.13,0,135.14,135.14,0,0,1,270.27,0,67.57,67.57,0,1,0,135.14,0C1858.11,741,1858.11,739.85,1858,738.72Z" fill="#0f1c23"/><path d="M2499.92,738.72c-1.8-147.67-122.07-266.82-270.19-266.82s-268.39,119.15-270.2,266.82c-.07,1.13-.07,2.25-.07,3.45a67.57,67.57,0,1,0,135.13,0,135.14,135.14,0,0,1,270.27,0,67.57,67.57,0,0,0,135.14,0C2500,741,2500,739.85,2499.92,738.72Z" fill="#0f1c23"/><path d="M1148.65,468.37a67.57,67.57,0,0,0-67.57,67.56V941.34a67.57,67.57,0,1,0,135.14,0V535.93A67.57,67.57,0,0,0,1148.65,468.37Z" fill="#0f1c23"/><circle cx="1148.65" cy="333.23" r="67.57" fill="#ffce18"/><path d="M2500,1080a67.53,67.53,0,0,0-135-2.13h-.52c-7.86,247.47-208,441.33-455.67,441.33s-447.8-193.86-455.66-441.33h-.52a67.53,67.53,0,1,0-134,13.25,587.91,587.91,0,0,0,178.57,396.25c110.86,107.66,257.06,167,411.65,167s300.8-59.3,411.66-167A588,588,0,0,0,2499,1091.13,67.92,67.92,0,0,0,2500,1080Z" fill="#ffce18"/></g></svg>