<?xml version="1.0" encoding="utf-8"?>
<!-- Generator: Adobe Illustrator 15.0.0, SVG Export Plug-In . SVG Version: 6.00 Build 0)  -->
<!DOCTYPE svg PUBLIC "-//W3C//DTD SVG 1.1//EN" "http://www.w3.org/Graphics/SVG/1.1/DTD/svg11.dtd" [
	<!ENTITY ns_flows "http://ns.adobe.com/Flows/1.0/">
	<!ENTITY ns_extend "http://ns.adobe.com/Extensibility/1.0/">
	<!ENTITY ns_ai "http://ns.adobe.com/AdobeIllustrator/10.0/">
	<!ENTITY ns_graphs "http://ns.adobe.com/Graphs/1.0/">
]>
<svg version="1.1" id="Layer_1" xmlns:x="&ns_extend;" xmlns:i="&ns_ai;" xmlns:graph="&ns_graphs;"
	 xmlns="http://www.w3.org/2000/svg" xmlns:xlink="http://www.w3.org/1999/xlink" xmlns:a="http://ns.adobe.com/AdobeSVGViewerExtensions/3.0/"
	 x="0px" y="0px" width="64px" height="64px" viewBox="0 0 64 64" enable-background="new 0 0 64 64" xml:space="preserve">
<linearGradient id="SVGID_1_" gradientUnits="userSpaceOnUse" x1="32.0005" y1="62" x2="32.0005" y2="2.0005">
	<stop  offset="0" style="stop-color:#FFA027"/>
	<stop  offset="0.2723" style="stop-color:#FFC151"/>
	<stop  offset="0.7633" style="stop-color:#FFC93F"/>
	<stop  offset="1" style="stop-color:#FFE261"/>
	<a:midPointStop  offset="0" style="stop-color:#FFA027"/>
	<a:midPointStop  offset="0.5" style="stop-color:#FFA027"/>
	<a:midPointStop  offset="0.2723" style="stop-color:#FFC151"/>
	<a:midPointStop  offset="0.5" style="stop-color:#FFC151"/>
	<a:midPointStop  offset="0.7633" style="stop-color:#FFC93F"/>
	<a:midPointStop  offset="0.5" style="stop-color:#FFC93F"/>
	<a:midPointStop  offset="1" style="stop-color:#FFE261"/>
</linearGradient>
<circle fill="url(#SVGID_1_)" cx="32" cy="32" r="30"/>
<path fill="#917524" d="M14.455,20.889c5.243,0.237,11.211-1.973,13.489-4.765c0.477-0.591-0.721-3.061-1.184-2.622
	c-3.561,3.379-8.396,5.719-13.247,5.811C12.862,19.325,13.668,20.854,14.455,20.889z"/>
<path fill="#917524" d="M49.543,20.887c-5.242,0.238-11.209-1.971-13.486-4.764c-0.48-0.588,0.721-3.062,1.184-2.621
	c3.561,3.376,8.396,5.719,13.246,5.81C51.139,19.323,50.332,20.853,49.543,20.887z"/>
<circle fill="#302C3B" cx="22" cy="28.5" r="4.5"/>
<circle fill="#302C3B" cx="42" cy="28.5" r="4.5"/>
<path fill="#302C3B" d="M22.77,48.328c5.624-4.66,12.844-4.658,18.463,0c0.797,0.658,0.895-0.053,0.648-0.611
	c-4.16-9.5-15.602-9.498-19.762,0C21.873,48.275,21.971,48.986,22.77,48.328z"/>
</svg>
