<svg xmlns="http://www.w3.org/2000/svg" width="64" height="64" viewBox="0 0 64 64"><linearGradient id="1f604-a" gradientUnits="userSpaceOnUse" x1="32.001" y1="62" x2="32.001" y2="2.001"><stop offset="0" stop-color="#ffa027"/><stop offset=".272" stop-color="#ffc151"/><stop offset=".763" stop-color="#ffc93f"/><stop offset="1" stop-color="#ffe261"/></linearGradient><circle fill="url(#1f604-a)" cx="32" cy="32" r="30"/><path fill="#302C3B" d="M36.225 28.617c3.775-4.206 9.645-4.208 13.42 0 .58.644.924-.052.74-.598-3.67-10.858-11.23-10.858-14.9 0-.186.546.16 1.242.74.598zM14.355 28.617c3.776-4.206 9.645-4.208 13.42 0 .58.644.924-.052.74-.598-3.67-10.858-11.23-10.858-14.9 0-.184.546.16 1.242.74.598zM51 37.789c0-.893-.527-2.01-2.037-2.297C45.092 34.756 39.375 34 32 34h-.002c-7.367 0-13.09.756-16.961 1.492-1.508.287-2.037 1.404-2.037 2.297C13 45.867 19.271 54 31.998 54H32c12.729 0 19-8.133 19-16.211z"/><linearGradient id="1f604-b" gradientUnits="userSpaceOnUse" x1="32.002" y1="51.75" x2="32.002" y2="48.325"><stop offset="0" stop-color="#d63324"/><stop offset=".08" stop-color="#dc3f31"/><stop offset=".247" stop-color="#e75346"/><stop offset=".435" stop-color="#ee6155"/><stop offset=".657" stop-color="#f3695d"/><stop offset="1" stop-color="#f46c60"/></linearGradient><path fill="url(#1f604-b)" d="M24 50.082c2.314 1.051 4.98 1.668 8 1.668 3.021 0 5.688-.617 8.002-1.668C40.002 50.082 36 47 32 49c-4-2-8 1.082-8 1.082z"/><linearGradient id="1f604-c" gradientUnits="userSpaceOnUse" x1="16" y1="39.5" x2="47.999" y2="39.5"><stop offset="0" stop-color="#cfd7e6"/><stop offset=".037" stop-color="#dae0ec"/><stop offset=".126" stop-color="#eef1f6"/><stop offset=".215" stop-color="#fbfcfd"/><stop offset=".3" stop-color="#fff"/><stop offset=".7" stop-color="#fff"/><stop offset=".785" stop-color="#fbfcfd"/><stop offset=".874" stop-color="#eef1f6"/><stop offset=".963" stop-color="#dae0ec"/><stop offset="1" stop-color="#cfd7e6"/></linearGradient><path fill="url(#1f604-c)" d="M46.504 38.037C43.996 37.66 38.689 37 32 37s-11.994.66-14.506 1.037c-1.477.221-1.566.76-1.465 1.52.063.451.156 1 .303 1.588.16.652.291.824 1.447.836 2.221.027 26.221.027 28.444-.001 1.156-.012 1.279-.184 1.445-.836.145-.588.242-1.137.301-1.588.105-.759.011-1.298-1.465-1.519z"/></svg>